<?xml version="1.0" encoding="UTF-8"?>
<svg version="1.1" xmlns="http://www.w3.org/2000/svg" width="1164" height="1013">
<path d="M0 0 C1.05316406 0.76054688 2.10632813 1.52109375 3.19140625 2.3046875 C14.17130117 10.40989728 24.41156559 19.16587447 34.36376953 28.48144531 C35.97796259 29.9795475 37.60807697 31.45770268 39.24609375 32.9296875 C44.27062359 37.45160923 49.08152458 41.99257149 53.43359375 47.18359375 C54.99941916 48.99932645 56.6490212 50.64942704 58.375 52.3125 C62.15831531 56.02810497 65.42038927 60.11136921 68.7421875 64.23828125 C70.78965406 66.74270834 72.89539478 69.16168735 75.0625 71.5625 C78.51668906 75.40656783 81.76864955 79.37632353 84.96875 83.43359375 C86.3905515 85.22998526 87.82957411 87.01281908 89.28125 88.78515625 C90.0134375 89.68105469 90.745625 90.57695312 91.5 91.5 C92.50546875 92.72203125 92.50546875 92.72203125 93.53125 93.96875 C95 96 95 96 95 98 C95.66 97.67 96.32 97.34 97 97 C100.08695193 96.87532047 103.1502682 96.81189408 106.23828125 96.796875 C107.64791641 96.78635353 107.64791641 96.78635353 109.08602905 96.77561951 C112.16156711 96.75795779 115.23691286 96.75175254 118.3125 96.75 C119.35886627 96.74932526 120.40523254 96.74865051 121.48330688 96.74795532 C145.84958013 96.77296027 169.20680132 99.09748987 193.13671875 103.81640625 C194.12865234 104.00356201 195.12058594 104.19071777 196.14257812 104.38354492 C199 105 199 105 201.70117188 105.8762207 C204.30111072 106.66031744 206.28571357 107.15570236 209 107 C212.37680863 104.91650255 214.64814748 102.12754294 217.125 99.0625 C218.43624937 97.52924702 219.75133923 95.99926986 221.0703125 94.47265625 C221.71315186 93.71855469 222.35599121 92.96445313 223.01831055 92.1875 C226.08057736 88.80719808 229.51546156 85.93074573 233 83 C234.48190724 81.62795409 235.96147273 80.25336951 237.4375 78.875 C244.57711041 72.43728677 252.29174141 66.73159705 260 61 C260.60360352 60.54979492 261.20720703 60.09958984 261.82910156 59.63574219 C301.03763741 30.54842747 352.63487908 0.06453433 403.48828125 6.49609375 C430.85159987 10.62312238 455.69673022 24.66637441 472.43505859 46.90771484 C502.51394409 88.3398462 504.24373763 142.74025912 507 192 C507.05784668 192.9472998 507.11569336 193.89459961 507.17529297 194.87060547 C510.6994725 253.77773697 508.15692242 314.44484168 499.13134766 372.78222656 C497.61207408 382.98970528 498.48523062 390.46915698 502.125 400.0625 C512.0780421 427.53341256 518.82183356 455.94456091 522 485 C522.0942627 485.75450439 522.18852539 486.50900879 522.28564453 487.28637695 C525.18989647 513.41685127 524.65073145 542.134746 520 568 C519.80132324 569.10827148 519.60264648 570.21654297 519.39794922 571.35839844 C510.45745369 619.4830433 491.21250997 665.99097242 460.38085938 704.28125 C459.16960105 705.78889827 457.98129356 707.31492604 456.796875 708.84375 C444.19688216 725.02910665 429.26953308 740.51156691 413 753 C411.73754054 754.00167131 410.47588173 755.00435222 409.21484375 756.0078125 C350.11816498 802.61239691 275.19102878 823.34476731 201 828 C200.1435791 828.05639648 199.2871582 828.11279297 198.40478516 828.17089844 C114.64850164 833.47928468 29.16365853 820.96933766 -107 768 C-107.22445801 768.58225342 -107.44891602 769.16450684 -107.68017578 769.7644043 C-124.49004423 813.04055462 -151.12642581 846.47359177 -193.5625 866.75 C-210.01483547 873.85330804 -228.03837716 878.44173334 -246 879 C-247.11890625 879.03996094 -248.2378125 879.07992187 -249.390625 879.12109375 C-280.92253133 879.69135163 -311.39519758 870.99922307 -339 856 C-339.97694824 855.48034668 -339.97694824 855.48034668 -340.97363281 854.95019531 C-394.37267466 826.49327052 -430.08240748 778.35516572 -448 721 C-451.66130044 708.63663361 -454.77402911 696.10551919 -457.1875 683.4375 C-457.35000244 682.58728271 -457.51250488 681.73706543 -457.67993164 680.86108398 C-458.69183088 675.07573964 -459.20758349 669.34913173 -459.56640625 663.49609375 C-459.79791286 647.48338553 -459.79791286 647.48338553 -466.28515625 633.68359375 C-469.54477716 631.08324495 -473.137102 629.17879382 -476.83203125 627.27001953 C-480.68830197 625.01097446 -483.70231187 621.92694417 -486.8125 618.75 C-487.7413501 617.80495605 -487.7413501 617.80495605 -488.68896484 616.84082031 C-509.49026918 595.03737701 -521.52260619 565.17188197 -522.375 535.125 C-521.96776982 519.9689551 -519.2591271 505.19964317 -514 491 C-513.35417969 489.25009766 -513.35417969 489.25009766 -512.6953125 487.46484375 C-508.69516478 477.44187475 -503.26693057 467.46715629 -496.42724609 459.06884766 C-494.86312283 456.80159133 -494.39191673 455.19311937 -493.89453125 452.5 C-493.72026611 451.6229541 -493.54600098 450.7459082 -493.36645508 449.84228516 C-493.1836499 448.90433105 -493.00084473 447.96637695 -492.8125 447 C-486.40598773 416.95070224 -470.02230218 388.95720346 -444.03369141 371.69384766 C-438.51763067 368.18985204 -432.89238112 364.83598393 -427 362 C-428.07636719 361.46632813 -429.15273438 360.93265625 -430.26171875 360.3828125 C-454.22586472 348.25880121 -473.35133964 330.76633218 -482.72460938 305.00878906 C-490.52186652 281.19716532 -489.08245759 255.01265157 -478.69140625 232.27734375 C-473.75985203 222.72174561 -467.39590436 214.74809028 -460 207 C-459.19175781 206.07960938 -459.19175781 206.07960938 -458.3671875 205.140625 C-455.48464983 201.98287016 -453.58137485 200.20809122 -449.453125 198.73046875 C-444.95484817 197.0059496 -441.39717069 195.35387186 -439 191 C-437.49778768 182.1107264 -438.4288649 172.89148164 -438.84747314 163.92649841 C-439.18535747 155.64875401 -437.82093351 148.77008609 -435 141 C-434.75862305 140.33307129 -434.51724609 139.66614258 -434.26855469 138.97900391 C-425.49408696 115.42038583 -408.43149193 97.21840561 -386 86 C-362.76874702 75.64119871 -336.73004664 75.01058916 -312.875 83.6875 C-299.5396481 88.86238847 -289.12813547 95.99014932 -279 106 C-278.27167969 106.65613281 -277.54335938 107.31226563 -276.79296875 107.98828125 C-273.42911211 111.08674486 -271.28821492 113.25692075 -269.6015625 117.60546875 C-267.8445518 121.97848538 -266.22066739 125.58791593 -262 128 C-253.69188968 129.48161943 -245.07037107 128.5573966 -236.68286133 128.12078857 C-228.7009584 127.77955755 -221.51519015 129.49865885 -214 132 C-212.43859818 126.7582751 -211.18406111 121.50463507 -210.046875 116.15625 C-209.67458468 114.42857173 -209.30201561 112.7009535 -208.92919922 110.97338867 C-208.64058014 109.63176163 -208.64058014 109.63176163 -208.34613037 108.26303101 C-201.24510599 75.35017923 -201.24510599 75.35017923 -197 61 C-196.75636719 60.1745166 -196.51273437 59.3490332 -196.26171875 58.49853516 C-190.55655168 39.69708392 -181.86998723 20.98367126 -169 6 C-168.27296875 5.13632813 -167.5459375 4.27265625 -166.796875 3.3828125 C-120.72367672 -49.61747503 -51.67171606 -37.43515472 0 0 Z " fill="#FAF6E8" transform="translate(581,84)"/>
<path d="M0 0 C32.91341499 12.41281222 61.84208744 38.98240289 84.25 65.5625 C85.18378806 66.6454874 86.11880079 67.72741943 87.0546875 68.80859375 C125.66679443 113.4736732 125.66679443 113.4736732 132.25 135.5625 C133.16394531 135.30855469 134.07789063 135.05460938 135.01953125 134.79296875 C155.48043417 129.38800315 176.1910319 128.28544958 197.25 128.25 C198.10319824 128.24641479 198.95639648 128.24282959 199.83544922 128.23913574 C239.7706321 128.14877595 277.74732571 137.56579022 314.25 153.5625 C314.63478516 152.25152344 314.63478516 152.25152344 315.02734375 150.9140625 C323.96358924 126.41790075 350.95647035 101.20375803 371.25 85.5625 C372.47852918 84.58286412 373.70634311 83.60233087 374.93359375 82.62109375 C400.48220747 62.40103194 437.09453609 35.42778351 471.25 37.5625 C479.21670126 38.90822656 485.22142737 44.62737015 490.01171875 50.8515625 C494.19170282 57.31632375 496.40035979 64.13298284 498.25 71.5625 C498.41741699 72.23410156 498.58483398 72.90570313 498.75732422 73.59765625 C502.351614 88.47430352 503.63608644 103.62191394 504.9296875 118.83300781 C505.21711877 122.17965419 505.52539359 125.52336963 505.84375 128.8671875 C507.29198697 144.41375278 507.97568588 159.95429969 508.25 175.5625 C508.26673767 176.44808594 508.28347534 177.33367187 508.30072021 178.24609375 C509.24050149 229.47897738 508.13811019 282.47202833 498.00926208 332.89926147 C495.39956126 345.97088768 495.88685917 354.27464271 501.375 366.5625 C502.3959699 368.95866716 503.41158827 371.3571215 504.421875 373.7578125 C504.91236328 374.92086914 505.40285156 376.08392578 505.90820312 377.28222656 C511.60566554 391.21073913 515.02201248 405.90205666 518.25 420.5625 C518.48396484 421.6146167 518.48396484 421.6146167 518.72265625 422.68798828 C522.45371667 439.65843091 523.66406605 456.11858048 523.625 473.4375 C523.6237915 474.43005798 523.62258301 475.42261597 523.62133789 476.44525146 C523.46524693 523.76841394 508.78190399 570.46474721 480.25 608.5625 C479.81365234 609.15289063 479.37730469 609.74328125 478.92773438 610.3515625 C451.58689051 647.13006062 413.26950506 673.25154623 370.25 688.5625 C369.30995117 688.89733398 368.36990234 689.23216797 367.40136719 689.57714844 C281.27443255 719.72016039 179.4216703 713.47682202 23.25 664.5625 C22.2098877 664.08844727 21.16977539 663.61439453 20.09814453 663.12597656 C-22.44502548 643.61697809 -64.88625477 617.24152519 -93.75 579.5625 C-94.17490723 579.01400391 -94.59981445 578.46550781 -95.03759766 577.90039062 C-108.56788108 560.35338038 -120.00100349 540.7604845 -126.75 519.5625 C-127.07484375 518.55832031 -127.3996875 517.55414062 -127.734375 516.51953125 C-149.02166773 446.68083625 -131.36543507 381.3778523 -98.109375 318.6640625 C-92.93731029 309.11771955 -87.36202494 299.40948213 -80.6237793 290.86694336 C-78.2329555 286.65068276 -78.18029635 283.58443618 -78.2109375 278.828125 C-78.20000565 277.97473541 -78.18907379 277.12134583 -78.17781067 276.24209595 C-78.15570722 274.3981106 -78.14209132 272.55400791 -78.13607788 270.7098999 C-78.11703979 265.73052079 -78.02719534 260.75217965 -77.94921875 255.7734375 C-77.93496353 254.75158356 -77.92070831 253.72972961 -77.90602112 252.6769104 C-76.89269364 183.41815018 -67.63777315 114.71734316 -50.75 47.5625 C-50.39856934 46.14759277 -50.39856934 46.14759277 -50.04003906 44.70410156 C-45.87609804 28.22372969 -39.2315553 11.05035366 -24.3125 1.5 C-16.69236479 -2.82577373 -8.36089461 -2.54764102 0 0 Z " fill="#000000" transform="translate(504.75,128.4375)"/>
<path d="M0 0 C7.70390223 4.87043311 13.37395066 11.13752807 18.4296875 18.64453125 C19.203125 18.23460937 19.9765625 17.8246875 20.7734375 17.40234375 C35.14350862 9.96832181 47.4894339 8.42921292 63.29296875 13.4375 C67.41881548 15.02515459 70.93352587 16.95397286 74.4296875 19.64453125 C75.24179687 20.24265625 76.05390625 20.84078125 76.890625 21.45703125 C85.10022572 28.52991803 90.66790613 39.43439693 91.66455078 50.17578125 C92.54910609 64.36808933 92.01803647 77.96136016 83.5546875 89.95703125 C80.9977206 93.7239194 81.06383896 96.44670713 81.80078125 100.875 C83.09026344 106.55352718 84.66805004 112.09588044 86.4296875 117.64453125 C86.73438965 118.61696777 87.0390918 119.5894043 87.35302734 120.59130859 C101.47333051 165.35824785 123.85534209 203.13509542 154.84619141 238.24951172 C164.74923451 249.51213093 174.13718893 261.45416389 179.4296875 275.64453125 C179.67332031 276.29164063 179.91695313 276.93875 180.16796875 277.60546875 C185.55191447 294.96594678 178.58097334 314.6591897 170.8046875 330.14453125 C160.48563155 348.26902696 143.24019815 362.10912788 123.1171875 367.64453125 C95.44062271 374.59207785 69.00620561 364.15519852 45.32250977 350.1262207 C14.74867026 331.46378631 -4.6118717 302.27255602 -15.87695312 268.70898438 C-16.46889601 266.94649527 -17.08723224 265.19290731 -17.7109375 263.44140625 C-27.22850566 235.1908468 -28.84289015 204.71822433 -28.8203125 175.14453125 C-28.81971832 174.27641815 -28.81912415 173.40830505 -28.81851196 172.5138855 C-28.81198017 170.02603929 -28.79553415 167.53853441 -28.7734375 165.05078125 C-28.7690416 164.31871964 -28.76464569 163.58665802 -28.76011658 162.83241272 C-28.69509037 158.03421247 -28.23688523 153.39736845 -27.5703125 148.64453125 C-28.41851562 148.6909375 -29.26671875 148.73734375 -30.140625 148.78515625 C-45.92396838 149.27079758 -59.68060996 144.69533459 -71.8203125 134.45703125 C-81.16399135 125.6027832 -87.64163254 114.09667718 -88.0078125 101.08203125 C-87.79873954 95.18617369 -86.77146701 90.10731551 -84.5703125 84.64453125 C-84.07724609 83.41283203 -84.07724609 83.41283203 -83.57421875 82.15625 C-78.82660567 71.5932216 -70.62143228 63.3210704 -60.5703125 57.64453125 C-58.27734375 56.9609375 -58.27734375 56.9609375 -56.5703125 56.64453125 C-56.8590625 55.85691406 -57.1478125 55.06929687 -57.4453125 54.2578125 C-61.82529418 41.40682457 -61.98775488 30.24248898 -56.5703125 17.64453125 C-50.94006394 7.34671912 -42.77408109 -0.38162625 -31.73828125 -4.5078125 C-20.88852538 -7.41089144 -9.82672989 -5.18218126 0 0 Z " fill="#000000" transform="translate(222.5703125,517.35546875)"/>
<path d="M0 0 C9.52739679 5.17871757 12.66361784 14.5640814 15.796875 24.33984375 C18.92922102 36.75922199 19.25385369 49.81686766 19.1875 62.55859375 C19.18567719 63.30071106 19.18385437 64.04282837 19.18197632 64.80743408 C19.08506877 88.68330789 16.53377077 112.29095494 13.375 135.93359375 C13.27353668 136.69565125 13.17207336 137.45770874 13.0675354 138.24285889 C7.96329325 176.13788084 7.96329325 176.13788084 -3.125 185.18359375 C-3.74375 185.74046875 -4.3625 186.29734375 -5 186.87109375 C-12.79359412 191.68478424 -21.93447481 190.85175 -30.48046875 188.86328125 C-32.76194599 188.27759056 -35.03925328 187.67545788 -37.3125 187.05859375 C-38.50633301 186.74019531 -39.70016602 186.42179688 -40.93017578 186.09375 C-68.56267973 178.54565206 -97.11045049 163.3294366 -111.92578125 137.6171875 C-113.66581279 134.08611372 -114.73808596 131.10703783 -115.125 127.18359375 C-115.22941406 126.19101562 -115.33382812 125.1984375 -115.44140625 124.17578125 C-116.8357932 98.1274463 -96.73985259 73.1123399 -80.328125 54.6640625 C-72.10151496 45.62975831 -63.52806932 36.98006487 -53.91796875 29.4140625 C-51.25882789 27.29046889 -48.69739419 25.08984357 -46.13818359 22.84863281 C-13.87559047 -5.33087943 -13.87559047 -5.33087943 0 0 Z " fill="#FAF6E8" transform="translate(958.125,212.81640625)"/>
<path d="M0 0 C6.6991292 3.61267239 11.94149218 8.89017978 17.3125 14.1875 C17.869375 14.73067871 18.42625 15.27385742 19 15.83349609 C25.37844252 22.06153783 31.55553372 28.37609989 37.3125 35.1875 C38.21086791 36.21214176 39.1107492 37.23545762 40.01171875 38.2578125 C59.06026685 59.97657272 77.11686978 85.42869628 84.375 113.75 C84.68135376 114.94496094 84.68135376 114.94496094 84.99389648 116.1640625 C87.60431346 127.44878793 86.78909655 138.47510269 80.875 148.6640625 C65.06632035 170.17298721 37.56480304 183.3520407 11.7734375 187.45605469 C-19.61696292 192.09327293 -19.61696292 192.09327293 -29.625 186.8125 C-37.92187073 180.47132023 -40.94988887 171.12178236 -42.6875 161.1875 C-43.09240799 155.92914868 -43.11133749 150.69494362 -43.0859375 145.42578125 C-43.08796914 143.90772869 -43.09088948 142.3896771 -43.09463501 140.87162781 C-43.09903558 137.69207452 -43.09272018 134.51277539 -43.07861328 131.33325195 C-43.0618264 127.36705095 -43.07147928 123.40146735 -43.08892441 119.43528938 C-43.14895175 103.35172445 -42.80434854 87.37963209 -41.3515625 71.35546875 C-41.23533539 70.05974442 -41.11910828 68.76402008 -40.99935913 67.42903137 C-38.81865424 45.54185508 -35.54927691 20.39896495 -20.6875 3.1875 C-13.82680977 -1.8530071 -8.03861195 -3.57989632 0 0 Z " fill="#FAF6E8" transform="translate(509.6875,183.8125)"/>
<path d="M0 0 C4.58531849 2.29265925 7.42720738 5.42842085 10.5078125 9.4140625 C13.11933783 12.18966272 15.23752743 12.92414679 19.0234375 13.30078125 C26.96411626 13.32854586 31.49113467 12.61298482 37.9375 7.8125 C41.68704662 5.59338057 43.70325339 5.46290667 48 6 C52.21941581 7.62285224 54.63072482 9.16273011 57 13 C57.85394988 17.66210475 57.48692433 21.81746948 55.6875 26.1875 C48.35905191 33.85680615 38.86072864 37.598127 29 41 C36.05815602 55.24464215 42.24964542 63.17434572 57 70 C68.47986915 73.36066468 81.64545294 71.64144288 92 66 C98.83124299 61.78408741 103.29262764 56.39662082 108 50 C109.08939573 48.65457117 110.19256509 47.32011651 111.3125 46 C111.78300781 45.443125 112.25351562 44.88625 112.73828125 44.3125 C114.83908657 42.12714214 116.12271233 41.98796938 119.1875 41.6875 C124.75053807 42.14348673 128.16340345 43.99122252 132 48.1875 C133.84631654 53.38026527 133.10118599 57.60072722 130.8203125 62.5703125 C123.09655414 75.75065637 111.74227099 85.61104945 98 92 C96.88625 92.5259375 95.7725 93.051875 94.625 93.59375 C79.06172026 99.84685347 59.2914531 99.1803059 43.94140625 92.7109375 C33.61966808 87.89154914 25.83011577 81.14898927 18 73 C17.00225988 71.99774522 16.00307217 70.99691836 15 70 C14.34515625 70.50789062 13.6903125 71.01578125 13.015625 71.5390625 C1.40237369 80.29820968 -11.22566154 87.11994013 -26 88 C-26.85851562 88.05285156 -27.71703125 88.10570312 -28.6015625 88.16015625 C-46.44617929 88.71329127 -63.24100616 83.78849111 -76.5 71.5625 C-78.37861125 69.74557449 -80.18763769 67.88539781 -82 66 C-82.76054688 65.23558594 -83.52109375 64.47117187 -84.3046875 63.68359375 C-89.69619754 57.99707656 -95.58941905 50.91471527 -96.26171875 42.8671875 C-95.90459154 38.95477893 -94.47549222 37.01073378 -92 34 C-89.0558634 31.61286222 -87.34898522 31.03807111 -83.5625 30.625 C-79.56627412 31.04565536 -77.42143501 31.9076609 -74 34 C-71.76171875 36.85546875 -71.76171875 36.85546875 -69.6875 40.1875 C-62.75363406 50.80761288 -54.23924174 57.4882563 -42 61 C-27.41244532 62.52120493 -14.20223845 59.51713094 -2.453125 50.3359375 C1.70741161 46.37415264 4.90740264 41.82055291 8 37 C7.1234375 36.74476563 6.246875 36.48953125 5.34375 36.2265625 C-3.89060757 32.83919302 -11.60855793 25.78288414 -16 17 C-16.43281664 12.76339098 -16.44858706 9.08605289 -14.8125 5.125 C-10.69357466 0.29591511 -6.26601749 -1.08759278 0 0 Z " fill="#F8F4E6" transform="translate(692,529)"/>
<path d="M0 0 C8.12064026 5.67351129 13.65329418 14.24810268 16.06640625 23.83984375 C18.07663649 35.9368045 15.70445787 45.71849433 8.7578125 55.80859375 C2.19255975 63.86442685 -6.38607698 69.60150026 -16.78125 70.91015625 C-27.75562942 71.37249152 -38.1473067 68.33509191 -46.71484375 61.2890625 C-55.0702363 52.86021595 -59.50146136 42.71287254 -59.8046875 30.87109375 C-59.7180924 20.82606273 -55.9248819 12.42130975 -49.2421875 4.99609375 C-34.16880159 -8.70698435 -17.61588959 -10.6302782 0 0 Z " fill="#F8F5E7" transform="translate(249.4921875,579.50390625)"/>
<path d="M0 0 C15.77387612 13.91040656 15.77387612 13.91040656 16.84765625 21.6953125 C16.08932721 26.81403349 14.53821286 29.06916262 10.59765625 32.3828125 C6.73162328 34.39017577 4.64945488 34.68485516 0.34765625 34.0703125 C-4.46877383 31.66209746 -7.40345314 28.15938137 -10.83203125 24.14453125 C-20.97775522 12.58363119 -36.83208659 4.15768001 -52.23144531 2.8515625 C-62.76817249 2.26435374 -73.15484406 1.89570184 -82.65234375 7.0703125 C-83.50699219 7.50601562 -84.36164062 7.94171875 -85.2421875 8.390625 C-93.76302871 13.08029099 -99.87988232 19.52667985 -105.328125 27.50390625 C-107.15406486 29.66379382 -108.99232454 29.99491705 -111.73828125 30.30859375 C-115.73379552 30.43814114 -118.05469455 30.41364289 -121.58984375 28.3828125 C-124.67988203 24.91822412 -125.52982493 22.41640747 -125.94921875 17.80859375 C-125.30962723 9.75479005 -117.61601561 1.1661108 -111.765625 -4.25390625 C-77.36974626 -31.52901157 -33.13949964 -27.48153629 0 0 Z " fill="#F7F3E6" transform="translate(600.65234375,487.9296875)"/>
<path d="M0 0 C8.87646583 6.49560619 24.1372201 18.06745702 26.49609375 29.37890625 C26.37196969 34.00459604 26.19205823 37.38233401 23 41 C18.6171637 43.88868756 15.20635305 44.56796579 10 44 C5.4932541 41.88473701 3.10803018 38.78428842 0.3125 34.8125 C-7.93592166 23.67295865 -20.02393871 14.40966574 -34 12 C-46.37575131 11.30149134 -56.49695566 12.18664788 -67 19 C-67.86625 19.556875 -68.7325 20.11375 -69.625 20.6875 C-72.7118137 23.69308176 -74.97169243 27.0795825 -77.3515625 30.66015625 C-79.70851625 34.00569013 -81.0755449 35.6918483 -85 37 C-89.25160217 37.40109454 -91.5006973 37.26378256 -95.3125 35.25 C-98.33386869 32.72048203 -99.58559845 30.85197153 -100.44140625 27.02734375 C-100.9406742 18.41094529 -96.09188108 12.71245402 -90.80078125 6.359375 C-66.38320299 -19.95510603 -28.49781762 -19.56433247 0 0 Z " fill="#F8F4E6" transform="translate(917,496)"/>
<path d="M0 0 C3.72994701 2.70342798 6.79770638 6.22431901 8.859375 10.34765625 C9.42025592 16.3447676 9.31679343 21.22113927 5.859375 26.34765625 C2.11490453 30.68408345 -1.65343665 32.75087472 -6.953125 34.66015625 C-7.71995605 34.94576416 -8.48678711 35.23137207 -9.27685547 35.52563477 C-11.89112843 36.48692418 -14.51445912 37.4193671 -17.140625 38.34765625 C-18.14947754 38.70891602 -19.15833008 39.07017578 -20.19775391 39.44238281 C-23.38097433 40.57495456 -26.5713338 41.68422672 -29.765625 42.78515625 C-30.77214111 43.13940674 -31.77865723 43.49365723 -32.81567383 43.85864258 C-39.23544047 46.01963018 -44.7255493 47.47743993 -51.4609375 45.75390625 C-56.74920837 43.09832434 -60.75418727 39.87826923 -63.140625 34.34765625 C-64.08602308 28.39164837 -64.05227421 23.27224902 -61.453125 17.78515625 C-57.1342484 13.23282686 -53.17998805 10.72332585 -47.265625 8.59765625 C-46.58943115 8.35450684 -45.9132373 8.11135742 -45.21655273 7.86083984 C-43.70593812 7.31997972 -42.19371242 6.78360498 -40.68017578 6.25097656 C-37.87499305 5.25317075 -35.08455729 4.21879458 -32.29296875 3.18359375 C-30.26341969 2.4455169 -28.23347351 1.70853108 -26.203125 0.97265625 C-25.24486816 0.61461914 -24.28661133 0.25658203 -23.29931641 -0.11230469 C-15.11469377 -3.02675256 -7.87156933 -4.39233568 0 0 Z " fill="#020202" transform="translate(233.140625,329.65234375)"/>
<path d="M0 0 C7.131126 3.11646537 11.27906216 8.59649465 14.2109375 15.66015625 C14.9625664 17.62858298 15.69932028 19.60274742 16.421875 21.58203125 C16.79054688 22.55527344 17.15921875 23.52851563 17.5390625 24.53125 C18.27664508 26.48688268 19.00425782 28.44630561 19.72167969 30.40942383 C20.44194101 32.36724588 21.18244486 34.31773253 21.94238281 36.26049805 C24.84419941 43.79863203 25.80224651 50.2382828 24.796875 58.33203125 C22.27205862 63.75571087 18.47874238 67.11300062 13.046875 69.58203125 C6.00082798 71.2080421 0.95210381 71.04294128 -5.28125 67.20703125 C-12.14550514 60.51019697 -14.70312483 51.16503091 -17.70727539 42.32421875 C-18.51353368 39.96315552 -19.34652476 37.61270611 -20.18164062 35.26171875 C-26.55304525 16.94311306 -26.55304525 16.94311306 -22.703125 8.58203125 C-17.07167194 0.29237483 -9.71854609 -2.94658046 0 0 Z " fill="#020202" transform="translate(241.203125,238.66796875)"/>
<path d="M0 0 C4.75215359 3.52011377 8.09478232 6.7822702 9.1015625 12.7734375 C9.37727137 18.53430178 8.99942505 23.47691848 5.38183594 28.13769531 C-0.95584454 34.63038299 -11.72383105 37.0976803 -20.14208984 40.0144043 C-22.24617669 40.74866578 -24.33937188 41.50961499 -26.43359375 42.27148438 C-35.32542955 45.41869377 -44.81305573 48.56678274 -53.8125 44.3125 C-61.96802546 36.75372031 -61.96802546 36.75372031 -62.61328125 30.703125 C-62.79760106 24.45565354 -62.1332176 20.98142362 -58.375 15.9375 C-53.93237435 11.72993391 -49.82547366 9.60180341 -44.08203125 7.60546875 C-43.29535568 7.3239949 -42.50868011 7.04252106 -41.69816589 6.7525177 C-40.04056019 6.16391612 -38.38061129 5.58187608 -36.71850586 5.00610352 C-34.20431284 4.13085295 -31.70305458 3.22420628 -29.20117188 2.31445312 C-9.02925343 -4.86131772 -9.02925343 -4.86131772 0 0 Z " fill="#020202" transform="translate(345.375,289.0625)"/>
<path d="M0 0 C8.93152063 5.41749933 11.8186014 16.23411025 14.90234375 25.62646484 C15.62183405 27.802923 16.37576089 29.96527043 17.1328125 32.12890625 C20.15571603 41.02926176 23.24973621 50.85415003 19.80932617 60.08691406 C17.55954711 64.4153666 14.46540012 67.05978604 9.984375 68.9296875 C4.82751539 70.39019669 0.31022787 70.60284656 -4.7109375 68.5625 C-14.92675489 62.58913169 -17.68186722 50.26704425 -21.3269043 39.68554688 C-22.06323214 37.56038693 -22.82310164 35.4445978 -23.58398438 33.328125 C-29.39205602 16.80481251 -29.39205602 16.80481251 -26.30908203 9.25976562 C-20.94735084 -0.91491652 -10.54824919 -4.34813325 0 0 Z " fill="#020202" transform="translate(284.25,351.4375)"/>
<path d="M0 0 C4.2718085 0.90519614 8.5439973 1.8085799 12.81640625 2.7109375 C13.87314041 2.9345546 14.92987457 3.15817169 16.01863098 3.38856506 C22.59344851 4.77352813 29.17763997 6.09099094 35.77734375 7.3515625 C38.10378189 7.80277885 40.43001259 8.25505258 42.75622559 8.70742798 C44.197235 8.98328745 45.63954597 9.25244229 47.08312988 9.51449585 C49.06249618 9.87414499 51.03728441 10.25872368 53.01171875 10.64453125 C54.10444092 10.84796143 55.19716309 11.0513916 56.32299805 11.26098633 C59.97994834 12.574731 61.78417134 14.34323484 64.25 17.3125 C64.96235686 21.1117366 64.56263988 22.74974821 62.6875 26.125 C59.50266304 28.98318702 57.48479211 28.98704055 53.25 29.3125 C49.8137207 28.91040039 49.8137207 28.91040039 46.17578125 28.16015625 C45.17197418 27.95758209 45.17197418 27.95758209 44.14788818 27.75091553 C41.95019578 27.30387067 39.75650085 26.83979576 37.5625 26.375 C36.01308587 26.0555228 34.46352231 25.73676955 32.91381836 25.41870117 C20.16357426 22.78408628 7.4505456 19.97080123 -5.24682617 17.09301758 C-11.58764198 15.65869588 -17.92286871 14.24354674 -24.31640625 13.05859375 C-25.25556885 12.88416748 -26.19473145 12.70974121 -27.16235352 12.5300293 C-28.81263531 12.23186064 -30.46537102 11.94677063 -32.12084961 11.67895508 C-36.53102448 10.88754083 -38.97849999 9.88773502 -41.75 6.3125 C-43.212958 3.386584 -43.19523109 1.55632653 -42.75 -1.6875 C-35.27628253 -12.23863055 -10.8533551 -2.30776603 0 0 Z " fill="#F6F2E4" transform="translate(473.75,560.6875)"/>
<path d="M0 0 C1.00292587 0.04726227 2.00585175 0.09452454 3.03916931 0.14321899 C17.01734841 0.8361883 30.98077155 1.78319507 44.94165039 2.7578125 C48.13814037 2.98035555 51.3350187 3.19506209 54.5324707 3.40332031 C58.45665131 3.65891337 62.37978258 3.92704927 66.30248833 4.20433426 C67.77929963 4.30670776 69.2564152 4.40479333 70.73381233 4.49833298 C72.78590961 4.62923017 74.83625599 4.77630173 76.88696289 4.92724609 C78.04780899 5.00639252 79.20865509 5.08553894 80.40467834 5.16708374 C83.99422319 5.77255814 86.52180682 6.82789689 89.62890625 8.7109375 C91.97440299 12.22918261 92.20882028 13.56869444 91.62890625 17.7109375 C89.12421782 20.86779227 87.64566934 22.52335198 83.625 23.26513672 C81.86349609 23.20350342 81.86349609 23.20350342 80.06640625 23.140625 C79.04969849 23.11172684 79.04969849 23.11172684 78.01245117 23.08224487 C75.54820456 22.99540551 73.09032715 22.85745597 70.62890625 22.7109375 C69.63342773 22.65425903 68.63794922 22.59758057 67.61230469 22.53918457 C59.27869925 22.04924942 50.95434256 21.44706801 42.62890625 20.8359375 C40.15888882 20.65966999 37.68883683 20.48388602 35.21875 20.30859375 C30.37139983 19.96310036 25.52529958 19.6043877 20.6796875 19.23535156 C15.99122627 18.87884597 11.30245421 18.56153696 6.609375 18.27246094 C4.42836617 18.12463267 2.24737564 17.97653404 0.06640625 17.828125 C-0.93293945 17.77447784 -1.93228516 17.72083069 -2.96191406 17.66555786 C-9.71910641 17.17792466 -9.71910641 17.17792466 -12.9609375 14.85595703 C-15.01028431 11.73865075 -15.37109375 9.4267596 -15.37109375 5.7109375 C-11.14278633 -0.99603289 -7.34786553 -0.36690802 0 0 Z " fill="#F5F1E3" transform="translate(872.37109375,598.2890625)"/>
<path d="M0 0 C2.94798586 -0.06915828 5.89598854 -0.11673483 8.84449768 -0.1570282 C10.85756387 -0.19036415 12.87017692 -0.24818414 14.88267517 -0.30647278 C24.72516968 -0.39507295 24.72516968 -0.39507295 27.82920837 2.48869324 C30.09334517 6.09667105 30.34182758 8.00328523 29.52061462 12.18400574 C26.08920917 16.05897191 23.76645142 17.47107408 18.58628845 17.84342957 C16.63377327 17.88441652 14.68057631 17.89866547 12.72764587 17.89103699 C11.14992401 17.91412682 11.14992401 17.91412682 9.54032898 17.93768311 C6.13767465 17.98150398 2.73602825 17.99022978 -0.66688538 17.99650574 C-2.99185162 18.01576087 -5.31680408 18.03675856 -7.64173889 18.05949402 C-12.19767453 18.10058232 -16.75337721 18.12766664 -21.3094635 18.14445496 C-26.44700843 18.16829621 -31.57833362 18.264876 -36.71376038 18.40666199 C-39.11479614 18.4577216 -41.51583716 18.50853532 -43.91688538 18.55900574 C-44.97222473 18.59743591 -46.02756409 18.63586609 -47.11488342 18.67546082 C-53.84258886 18.75067882 -53.84258886 18.75067882 -57.10438538 15.84806824 C-58.80404902 12.55496992 -59.1645412 10.83817011 -58.47938538 7.18400574 C-55.92914172 4.08235805 -54.30239291 2.45834158 -50.47938538 1.18400574 C-47.6152247 1.02843129 -44.77153975 0.92586872 -41.90516663 0.86759949 C-41.04075455 0.84654648 -40.17634247 0.82549347 -39.28573608 0.80380249 C-36.45454931 0.73701769 -33.62329234 0.67815409 -30.79188538 0.62150574 C-29.35084442 0.59222992 -29.35084442 0.59222992 -27.88069153 0.56236267 C-22.96887015 0.46421017 -18.05697585 0.37316458 -13.14491272 0.28800964 C-8.76267781 0.21094937 -4.38149774 0.11058596 0 0 Z " fill="#F5F1E3" transform="translate(487.47938537597656,596.8159942626953)"/>
<path d="M0 0 C2.83617682 0.563858 5.56945003 1.36976644 8.33203125 2.21875 C9.92188647 2.68374169 11.51257367 3.14589647 13.10400391 3.60546875 C13.91371643 3.83991699 14.72342896 4.07436523 15.55767822 4.31591797 C19.45547639 5.40767161 23.38548946 6.35001872 27.32421875 7.28125 C28.09516876 7.46494141 28.86611877 7.64863281 29.66043091 7.83789062 C32.7886873 8.58155839 35.91810377 9.32007916 39.04907227 10.05224609 C68.66481222 16.99721833 68.66481222 16.99721833 72 22 C72.775 28.975 72.775 28.975 70.0625 32.5625 C63.69238762 35.55255275 56.0633533 32.65442038 49.5625 30.8125 C41.81236507 28.69074558 34.02533702 26.83097234 26.1875 25.0625 C17.64536085 23.10601566 9.11246988 21.12031718 0.625 18.9375 C-0.28999268 18.71650635 -1.20498535 18.4955127 -2.14770508 18.26782227 C-6.20189418 17.19548365 -8.50959305 16.47697114 -11.56640625 13.50390625 C-13.39960058 10.30206002 -13.68107841 8.63241817 -13 5 C-9.35671198 -0.23722652 -5.99281222 -0.57754001 0 0 Z " fill="#F5F1E3" transform="translate(885,628)"/>
<path d="M0 0 C0.99 0.03287109 0.99 0.03287109 2 0.06640625 C2.66 0.06511719 3.32 0.06382812 4 0.0625 C6.93900295 0.89483482 8.16090065 2.217372 10 4.62890625 C10.42578125 7.328125 10.42578125 7.328125 10.3125 10.31640625 C10.28800781 11.28964844 10.26351562 12.26289063 10.23828125 13.265625 C10.05965754 15.78685471 9.80932136 18.24899861 9.5 20.75390625 C9.07748531 24.38249446 8.90139626 27.96498596 8.82421875 31.6171875 C8.80037109 32.65294922 8.77652344 33.68871094 8.75195312 34.75585938 C8.70859346 36.89887775 8.67755926 39.04217729 8.65820312 41.18554688 C8.63048828 42.21486328 8.60277344 43.24417969 8.57421875 44.3046875 C8.55963623 45.23192627 8.54505371 46.15916504 8.5300293 47.11450195 C7.84034519 50.3862922 6.58853703 51.56938788 4 53.62890625 C0.5625 54.69140625 0.5625 54.69140625 -3 54.62890625 C-5.61289441 52.97407312 -6.58327331 52.27393803 -8 49.62890625 C-8.68749737 45.36953871 -8.56342404 41.18209542 -8.4375 36.87890625 C-8.41719727 35.67347168 -8.39689453 34.46803711 -8.37597656 33.22607422 C-7.6755998 2.41361634 -7.6755998 2.41361634 0 0 Z " fill="#F6F2E5" transform="translate(555,377.37109375)"/>
<path d="M0 0 C2.9375 1.9375 2.9375 1.9375 5 5 C5.70278738 11.0463949 3.10968521 16.71330079 0.984375 22.2421875 C-1.12712241 28.15773182 -1.96147817 34.06800635 -2.3125 40.3125 C-2.64860601 43.86962189 -3.00977093 45.01480444 -5.0625 48.125 C-9.20149091 50.76690909 -11.14227542 50.77106739 -16 50 C-18.5 48 -18.5 48 -20 45 C-20.50354034 33.57442984 -17.7575761 22.50926688 -14.125 11.75 C-13.77671143 10.67794312 -13.77671143 10.67794312 -13.42138672 9.58422852 C-11.07023516 2.98693203 -7.37964576 -1.38368358 0 0 Z " fill="#F5F1E3" transform="translate(592,390)"/>
<path d="M0 0 C2.72869828 2.87128964 3.38357558 4.90931816 3.4765625 8.82421875 C3.52272705 10.2321167 3.52272705 10.2321167 3.56982422 11.66845703 C3.58803223 12.66474121 3.60624023 13.66102539 3.625 14.6875 C3.680266 16.76177371 3.73757619 18.83599391 3.796875 20.91015625 C3.82458984 21.9377002 3.85230469 22.96524414 3.88085938 24.02392578 C3.98953162 26.73850494 4.1892852 29.41780831 4.453125 32.12109375 C4.52321777 32.88784424 4.59331055 33.65459473 4.66552734 34.44458008 C4.86284525 36.49848014 5.08302182 38.55014735 5.3046875 40.6015625 C5 44 5 44 2.73046875 46.921875 C0 49 0 49 -3.5625 49.625 C-7 49 -7 49 -9.3125 47.1875 C-13.92570627 38.47366594 -13.42179432 27.74429819 -13.5 18.125 C-13.54125 16.83335937 -13.5825 15.54171875 -13.625 14.2109375 C-13.70041622 5.12328304 -13.70041622 5.12328304 -11.75854492 2.0090332 C-7.87374156 -1.44878849 -4.81370075 -1.54401722 0 0 Z " fill="#F5F1E3" transform="translate(869,399)"/>
<path d="M0 0 C3.30665568 1.09791302 4.16576992 2.68434485 6 5.6640625 C7.43348794 9.60428976 8.53370634 13.61758425 9.625 17.6640625 C10.21923586 19.81048341 10.81551864 21.95633892 11.4140625 24.1015625 C11.6713916 25.04902344 11.9287207 25.99648438 12.19384766 26.97265625 C12.95898967 29.68372379 12.95898967 29.68372379 14.07177734 32.29296875 C15.38460536 35.64651574 15.44603501 38.09578241 15 41.6640625 C12.9375 44.6640625 12.9375 44.6640625 10 46.6640625 C6.4375 46.7890625 6.4375 46.7890625 3 45.6640625 C-0.98300499 41.66567911 -2.42708386 37.29474009 -4.0625 32.0390625 C-4.31854004 31.24016602 -4.57458008 30.44126953 -4.83837891 29.61816406 C-5.57332805 27.30431398 -6.29038109 24.98579002 -7 22.6640625 C-7.34675781 21.53742188 -7.69351563 20.41078125 -8.05078125 19.25 C-11.28403981 8.1251388 -11.28403981 8.1251388 -8.5 2.7890625 C-5.47045681 0.21395079 -3.84854793 0.07516695 0 0 Z " fill="#F5F1E3" transform="translate(827,404.3359375)"/>
</svg>
